<svg xmlns="http://www.w3.org/2000/svg" xmlns:xlink="http://www.w3.org/1999/xlink" width="560" zoomAndPan="magnify" viewBox="0 0 420 44.999999" height="60" preserveAspectRatio="xMidYMid meet" version="1.0"><defs><g/></defs><g fill="#ffffff" fill-opacity="1"><g transform="translate(12.201648, 34.85615)"><g><path d="M 19.578125 -27.71875 L 30.109375 -27.71875 L 30.109375 -22.6875 L 27.859375 -22.6875 L 27.859375 0 L 21.796875 0 L 10.25 -17.921875 L 10.25 -5.015625 L 12.578125 -5.015625 L 12.578125 0 L 2.0625 0 L 2.0625 -5.015625 L 4.34375 -5.015625 L 4.34375 -22.6875 L 2.109375 -22.6875 L 2.109375 -27.71875 L 10.46875 -27.71875 L 21.9375 -9.5625 L 21.9375 -22.6875 L 19.578125 -22.6875 Z M 19.578125 -27.71875 "/></g></g></g><g fill="#ffffff" fill-opacity="1"><g transform="translate(54.473667, 34.85615)"><g><path d="M 2.0625 -27.71875 L 24.109375 -27.71875 L 24.109375 -18.265625 L 18.15625 -18.265625 L 18.15625 -22.1875 L 11.046875 -22.1875 L 11.046875 -16.71875 L 16.546875 -16.71875 L 16.546875 -11.421875 L 11.046875 -11.421875 L 11.046875 -5.015625 L 18.15625 -5.015625 L 18.15625 -9.921875 L 24.109375 -9.921875 L 24.109375 0 L 2.0625 0 L 2.0625 -5.015625 L 4.96875 -5.015625 L 4.96875 -22.1875 L 2.0625 -22.1875 Z M 2.0625 -27.71875 "/></g></g></g><g fill="#ffffff" fill-opacity="1"><g transform="translate(90.932711, 34.85615)"><g><path d="M 6.8125 -5.015625 L 9.6875 -5.015625 L 9.6875 -22.875 L 6.328125 -22.875 L 6.328125 -19.28125 L 0.359375 -19.28125 L 0.359375 -27.71875 L 25.578125 -27.71875 L 25.578125 -19.28125 L 19.578125 -19.28125 L 19.578125 -22.875 L 15.75 -22.875 L 15.75 -5.015625 L 18.6875 -5.015625 L 18.6875 0 L 6.8125 0 Z M 6.8125 -5.015625 "/></g></g></g><g fill="#ffffff" fill-opacity="1"><g transform="translate(128.305748, 34.85615)"><g><path d="M 15.390625 -19.90625 C 15.328125 -20.332031 15.175781 -20.734375 14.9375 -21.109375 C 14.707031 -21.492188 14.40625 -21.820312 14.03125 -22.09375 C 13.65625 -22.363281 13.234375 -22.578125 12.765625 -22.734375 C 12.296875 -22.898438 11.804688 -22.984375 11.296875 -22.984375 C 10.835938 -22.984375 10.40625 -22.929688 10 -22.828125 C 9.59375 -22.734375 9.238281 -22.582031 8.9375 -22.375 C 8.644531 -22.175781 8.410156 -21.914062 8.234375 -21.59375 C 8.054688 -21.28125 7.96875 -20.90625 7.96875 -20.46875 C 7.96875 -19.925781 8.085938 -19.492188 8.328125 -19.171875 C 8.566406 -18.847656 8.867188 -18.582031 9.234375 -18.375 C 9.609375 -18.164062 10.019531 -18 10.46875 -17.875 C 10.925781 -17.75 11.367188 -17.613281 11.796875 -17.46875 L 16.8125 -15.796875 C 17.507812 -15.546875 18.160156 -15.207031 18.765625 -14.78125 C 19.378906 -14.363281 19.90625 -13.847656 20.34375 -13.234375 C 20.789062 -12.628906 21.144531 -11.925781 21.40625 -11.125 C 21.664062 -10.332031 21.796875 -9.445312 21.796875 -8.46875 C 21.796875 -7.125 21.546875 -5.894531 21.046875 -4.78125 C 20.554688 -3.675781 19.863281 -2.726562 18.96875 -1.9375 C 18.082031 -1.144531 17.015625 -0.53125 15.765625 -0.09375 C 14.523438 0.34375 13.148438 0.5625 11.640625 0.5625 C 10.578125 0.5625 9.570312 0.441406 8.625 0.203125 C 7.6875 -0.0234375 6.828125 -0.363281 6.046875 -0.8125 C 5.265625 -1.269531 4.582031 -1.8125 4 -2.4375 C 3.414062 -3.0625 2.957031 -3.769531 2.625 -4.5625 L 0.75 -4.5625 L 0.75 -10.078125 L 7.359375 -10.078125 L 7.359375 -8.9375 C 7.359375 -8.382812 7.445312 -7.878906 7.625 -7.421875 C 7.800781 -6.960938 8.066406 -6.5625 8.421875 -6.21875 C 8.773438 -5.875 9.21875 -5.609375 9.75 -5.421875 C 10.289062 -5.234375 10.921875 -5.140625 11.640625 -5.140625 C 12.742188 -5.140625 13.582031 -5.390625 14.15625 -5.890625 C 14.726562 -6.398438 15.015625 -7.101562 15.015625 -8 C 15.015625 -8.46875 14.910156 -8.859375 14.703125 -9.171875 C 14.503906 -9.484375 14.242188 -9.742188 13.921875 -9.953125 C 13.609375 -10.160156 13.253906 -10.335938 12.859375 -10.484375 C 12.472656 -10.640625 12.09375 -10.773438 11.71875 -10.890625 L 7.53125 -12.25 C 6.738281 -12.488281 5.972656 -12.828125 5.234375 -13.265625 C 4.492188 -13.703125 3.84375 -14.25 3.28125 -14.90625 C 2.71875 -15.570312 2.265625 -16.34375 1.921875 -17.21875 C 1.585938 -18.101562 1.421875 -19.113281 1.421875 -20.25 C 1.421875 -21.570312 1.664062 -22.742188 2.15625 -23.765625 C 2.644531 -24.796875 3.328125 -25.664062 4.203125 -26.375 C 5.078125 -27.082031 6.117188 -27.617188 7.328125 -27.984375 C 8.535156 -28.347656 9.859375 -28.53125 11.296875 -28.53125 C 12.429688 -28.53125 13.476562 -28.398438 14.4375 -28.140625 C 15.40625 -27.878906 16.269531 -27.53125 17.03125 -27.09375 C 17.789062 -26.65625 18.4375 -26.148438 18.96875 -25.578125 C 19.5 -25.015625 19.90625 -24.425781 20.1875 -23.8125 L 22.015625 -23.8125 L 22.015625 -18.296875 L 15.390625 -18.296875 Z M 15.390625 -19.90625 "/></g></g></g><g fill="#ffffff" fill-opacity="1"><g transform="translate(162.297022, 34.85615)"><g><path d="M 2.0625 -27.71875 L 24.109375 -27.71875 L 24.109375 -18.265625 L 18.15625 -18.265625 L 18.15625 -22.1875 L 11.046875 -22.1875 L 11.046875 -16.71875 L 16.546875 -16.71875 L 16.546875 -11.421875 L 11.046875 -11.421875 L 11.046875 -5.015625 L 18.15625 -5.015625 L 18.15625 -9.921875 L 24.109375 -9.921875 L 24.109375 0 L 2.0625 0 L 2.0625 -5.015625 L 4.96875 -5.015625 L 4.96875 -22.1875 L 2.0625 -22.1875 Z M 2.0625 -27.71875 "/></g></g></g><g fill="#ffffff" fill-opacity="1"><g transform="translate(198.756061, 34.85615)"><g><path d="M 19.578125 -27.71875 L 30.109375 -27.71875 L 30.109375 -22.6875 L 27.859375 -22.6875 L 27.859375 0 L 21.796875 0 L 10.25 -17.921875 L 10.25 -5.015625 L 12.578125 -5.015625 L 12.578125 0 L 2.0625 0 L 2.0625 -5.015625 L 4.34375 -5.015625 L 4.34375 -22.6875 L 2.109375 -22.6875 L 2.109375 -27.71875 L 10.46875 -27.71875 L 21.9375 -9.5625 L 21.9375 -22.6875 L 19.578125 -22.6875 Z M 19.578125 -27.71875 "/></g></g></g><g fill="#ffffff" fill-opacity="1"><g transform="translate(241.028076, 34.85615)"><g><path d="M 6.8125 -5.015625 L 9.6875 -5.015625 L 9.6875 -22.875 L 6.328125 -22.875 L 6.328125 -19.28125 L 0.359375 -19.28125 L 0.359375 -27.71875 L 25.578125 -27.71875 L 25.578125 -19.28125 L 19.578125 -19.28125 L 19.578125 -22.875 L 15.75 -22.875 L 15.75 -5.015625 L 18.6875 -5.015625 L 18.6875 0 L 6.8125 0 Z M 6.8125 -5.015625 "/></g></g></g><g fill="#ffffff" fill-opacity="1"><g transform="translate(278.401105, 34.85615)"><g><path d="M 2.0625 -27.71875 L 13.921875 -27.71875 L 13.921875 -22.703125 L 11 -22.703125 L 11 -5.015625 L 13.921875 -5.015625 L 13.921875 0 L 2.0625 0 L 2.0625 -5.015625 L 4.9375 -5.015625 L 4.9375 -22.703125 L 2.0625 -22.703125 Z M 2.0625 -27.71875 "/></g></g></g><g fill="#ffffff" fill-opacity="1"><g transform="translate(304.440676, 34.85615)"><g><path d="M 19.578125 -27.71875 L 30.109375 -27.71875 L 30.109375 -22.6875 L 27.859375 -22.6875 L 27.859375 0 L 21.796875 0 L 10.25 -17.921875 L 10.25 -5.015625 L 12.578125 -5.015625 L 12.578125 0 L 2.0625 0 L 2.0625 -5.015625 L 4.34375 -5.015625 L 4.34375 -22.6875 L 2.109375 -22.6875 L 2.109375 -27.71875 L 10.46875 -27.71875 L 21.9375 -9.5625 L 21.9375 -22.6875 L 19.578125 -22.6875 Z M 19.578125 -27.71875 "/></g></g></g><g fill="#ffffff" fill-opacity="1"><g transform="translate(346.71269, 34.85615)"><g><path d="M 2.0625 -27.71875 L 24.109375 -27.71875 L 24.109375 -18.265625 L 18.15625 -18.265625 L 18.15625 -22.1875 L 11.046875 -22.1875 L 11.046875 -16.71875 L 16.546875 -16.71875 L 16.546875 -11.421875 L 11.046875 -11.421875 L 11.046875 -5.015625 L 18.15625 -5.015625 L 18.15625 -9.921875 L 24.109375 -9.921875 L 24.109375 0 L 2.0625 0 L 2.0625 -5.015625 L 4.96875 -5.015625 L 4.96875 -22.1875 L 2.0625 -22.1875 Z M 2.0625 -27.71875 "/></g></g></g><g fill="#ffffff" fill-opacity="1"><g transform="translate(383.171746, 34.85615)"><g><path d="M 2.0625 -27.71875 L 13.921875 -27.71875 L 13.921875 -22.6875 L 11 -22.6875 L 11 -5.015625 L 17.03125 -5.015625 C 17.195312 -5.015625 17.351562 -5.054688 17.5 -5.140625 C 17.65625 -5.234375 17.789062 -5.351562 17.90625 -5.5 C 18.019531 -5.644531 18.113281 -5.800781 18.1875 -5.96875 C 18.257812 -6.144531 18.296875 -6.3125 18.296875 -6.46875 L 18.296875 -10.1875 L 24.21875 -10.1875 L 24.21875 0 L 2.0625 0 L 2.0625 -5.015625 L 4.9375 -5.015625 L 4.9375 -22.6875 L 2.0625 -22.6875 Z M 2.0625 -27.71875 "/></g></g></g></svg>